<svg width="24" height="23" viewBox="0 0 24 23" fill="none" xmlns="http://www.w3.org/2000/svg">
<g clip-path="url(#clip0_1717_130)">
<path d="M5.16849 7.32745H0.0493164V23.0006H5.16849V7.32745Z" fill="black"/>
<path d="M5.23198 4.0355C5.95674 2.70067 5.44668 1.03933 4.09274 0.324796C2.73879 -0.389736 1.05366 0.113118 0.328901 1.44795C-0.395862 2.78279 0.114192 4.44413 1.46814 5.15866C2.82209 5.87319 4.50721 5.37034 5.23198 4.0355Z" fill="black"/>
<path d="M23.9195 22.9996H18.2591V13.9262C18.2591 11.4006 14.8339 10.6002 13.3368 12.8342V23.0006H8.21875V7.32745H13.3368V9.16555C14.2784 8.24921 15.7105 7.32745 17.6684 7.32745C21.5568 7.32745 23.9195 9.85091 23.9195 14.1691V23.0006V22.9996Z" fill="black"/>
</g>
<defs>
<clipPath id="clip0_1717_130">
<rect width="23.9195" height="22.9996" fill="white"/>
</clipPath>
</defs>
</svg>
