<svg width="209" height="96" viewBox="0 0 209 96" fill="none" xmlns="http://www.w3.org/2000/svg">
<g clip-path="url(#clip0_34_835)">
<path d="M126.209 15.1091C112.987 15.1091 102.228 26.2763 102.228 40.0036C102.228 53.7309 112.987 64.898 126.209 64.898C139.431 64.898 150.19 53.7309 150.19 40.0036C150.19 26.2763 139.431 15.1091 126.209 15.1091ZM139.915 40.0036C139.915 47.8447 133.768 54.229 126.209 54.229C118.65 54.229 112.503 47.85 112.503 40.0036C112.503 32.1571 118.65 25.7782 126.209 25.7782C133.768 25.7782 139.915 32.1571 139.915 40.0036ZM49.144 40.0036C49.144 53.7309 38.3854 64.898 25.163 64.898C19.8888 64.898 15.0138 63.1252 11.0476 60.1205V62.7931C11.0476 63.4466 10.538 63.9822 9.9076 63.9822H1.14521C0.514817 63.9768 0 63.4519 0 62.7985V1.18902C0 0.530239 0.509564 0 1.13995 0H9.90235C10.5327 0 11.0423 0.530239 11.0423 1.18366V19.892C15.0032 16.8873 19.8835 15.1145 25.1577 15.1145C38.3801 15.1145 49.1388 26.2816 49.1388 40.0089L49.144 40.0036ZM24.6377 25.7782C17.0835 25.7782 10.932 32.1571 10.932 40.0036C10.932 47.85 17.0783 54.229 24.6377 54.229C32.1971 54.229 38.3434 47.85 38.3434 40.0036C38.3434 32.1571 32.1971 25.7782 24.6377 25.7782ZM63.0073 34.7119C65.0246 29.2863 69.6527 25.4461 75.7359 25.4461C81.8192 25.4461 86.6101 29.2863 88.6273 34.7119C88.7797 35.1136 88.5013 35.5581 88.0968 35.5581H63.5431C63.1386 35.5581 62.8602 35.1189 63.0126 34.7119H63.0073ZM96.0659 50.3405H86.505C85.8589 50.3405 85.2285 50.5762 84.7347 50.9993C82.3708 53.0132 79.9858 54.561 75.7359 54.561C69.4268 54.561 65.0298 50.5119 63.0073 45.2631C62.855 44.8721 63.1334 44.4437 63.5379 44.4437H98.3458C98.9237 44.4437 99.4017 44.0045 99.4805 43.426C99.6329 42.3066 99.7117 41.1605 99.7117 39.9982C99.7117 26.2495 88.9741 15.1038 75.7307 15.1038C62.4872 15.1038 51.7496 26.2495 51.7496 39.9982C51.7496 53.7469 62.4872 64.8927 75.7307 64.8927C84.8976 64.8927 92.851 59.5528 96.8907 51.7117C97.2111 51.0904 96.7541 50.3405 96.0659 50.3405ZM176.603 25.7782C169.779 25.7782 164.248 30.5503 164.248 38.3807V62.7931C164.248 63.4466 163.738 63.9822 163.108 63.9822H154.345C153.715 63.9822 153.205 63.4519 153.2 62.7985V17.2729C153.2 16.6195 153.71 16.0839 154.34 16.0839H163.102C163.733 16.0839 164.242 16.6142 164.242 17.2676V19.9402C167.484 17.3693 171.634 15.1091 177.134 15.1091C189.526 15.1091 200.006 21.9969 200.006 40.2981V62.7878C200.006 63.4412 199.497 63.9768 198.867 63.9768H190.104C189.474 63.9768 188.964 63.4466 188.964 62.7931V38.3754C188.964 30.5503 183.432 25.7728 176.603 25.7728V25.7782Z" fill="white"/>
<path d="M9.95508 81.4426H12.9337C16.8106 81.4426 18.6387 83.8849 18.6387 87.0824V87.2271C18.6387 90.4085 16.8421 92.9311 12.9021 92.9311H9.95508V81.4426ZM12.8706 91.7903C15.7704 91.7903 17.2203 90.0229 17.2203 87.211V87.0824C17.2203 84.4312 15.9595 82.5674 12.8549 82.5674H11.3262V91.7903H12.8706Z" fill="white"/>
<path d="M20.624 81.8925C20.624 81.4105 21.018 81.0088 21.4908 81.0088C21.9636 81.0088 22.3576 81.4105 22.3576 81.8925C22.3576 82.3746 21.9636 82.7763 21.4908 82.7763C21.018 82.7763 20.624 82.3746 20.624 81.8925ZM20.8604 84.5277H22.1685V92.9311H20.8604V84.5277Z" fill="white"/>
<path d="M24.4068 93.4132H25.7463C25.9354 94.3773 26.7234 94.8754 28.126 94.8754C29.7493 94.8754 30.7737 94.088 30.7737 92.2884V91.0673C30.3009 91.8867 29.1819 92.658 27.9842 92.658C25.8251 92.658 24.2334 90.9869 24.2334 88.6732V88.5607C24.2334 86.2791 25.8094 84.3831 28.0788 84.3831C29.4499 84.3831 30.3009 85.0579 30.7737 85.8774V84.5277H32.0817V92.3688C32.066 94.8111 30.4427 96.0001 28.1418 96.0001C25.6991 96.0001 24.6274 94.8272 24.4068 93.4132ZM30.821 88.5768V88.4643C30.821 86.5843 29.8123 85.4917 28.2048 85.4917C26.5974 85.4917 25.5887 86.729 25.5887 88.4964V88.625C25.5887 90.4567 26.7392 91.5493 28.126 91.5493C29.6547 91.5493 30.821 90.4567 30.821 88.5768Z" fill="white"/>
<path d="M34.5244 81.8925C34.5244 81.4105 34.9184 81.0088 35.3912 81.0088C35.864 81.0088 36.258 81.4105 36.258 81.8925C36.258 82.3746 35.864 82.7763 35.3912 82.7763C34.9184 82.7763 34.5244 82.3746 34.5244 81.8925ZM34.7608 84.5277H36.0689V92.9311H34.7608V84.5277Z" fill="white"/>
<path d="M39.0316 90.8261V85.6523H37.8496V84.5276H39.0316V82.6155H40.3396V84.5276H42.2623V85.6523H40.3396V90.6976C40.3396 91.5171 40.7021 91.9188 41.364 91.9188C41.7738 91.9188 42.089 91.8545 42.3726 91.742V92.8668C42.1047 92.9632 41.7895 93.0435 41.2537 93.0435C39.7565 93.0435 39.0316 92.1437 39.0316 90.8261Z" fill="white"/>
<path d="M43.7437 90.6013C43.7437 88.6571 45.7609 87.9983 47.8727 87.9983H49.0547V87.3877C49.0547 86.0541 48.5504 85.4917 47.2896 85.4917C46.1549 85.4917 45.5245 85.9738 45.3984 87.0021H44.0904C44.2637 85.09 45.7609 84.3831 47.3526 84.3831C48.9444 84.3831 50.3627 85.0418 50.3627 87.3877V92.9311H49.0547V91.8707C48.44 92.658 47.6993 93.0758 46.4858 93.0758C44.9572 93.0758 43.7437 92.3206 43.7437 90.6013ZM49.0547 89.9907V88.9463H47.92C46.2652 88.9463 45.0517 89.3641 45.0517 90.6013C45.0517 91.469 45.4615 92.0153 46.6119 92.0153C47.9988 92.0153 49.0547 91.2922 49.0547 89.9907Z" fill="white"/>
<path d="M52.9629 80.5105H54.2867V92.9309H52.9629V80.5105Z" fill="white"/>
<path d="M61.2368 81.4426H62.6079V91.7903H67.7613V92.9311H61.2368V81.4426Z" fill="white"/>
<path d="M68.8018 88.8017V88.6732C68.8018 86.1505 70.5196 84.3831 72.852 84.3831C75.1844 84.3831 76.9022 86.1344 76.9022 88.6571V88.7856C76.9022 91.3244 75.1844 93.0758 72.8362 93.0758C70.488 93.0758 68.8018 91.2601 68.8018 88.8017ZM75.5417 88.8017V88.6892C75.5417 86.745 74.4858 85.4917 72.8467 85.4917C71.2077 85.4917 70.1518 86.745 70.1518 88.6732V88.8017C70.1518 90.7138 71.1762 91.9671 72.8467 91.9671C74.5173 91.9671 75.5417 90.6977 75.5417 88.8017Z" fill="white"/>
<path d="M78.4888 93.4132H79.8284C80.0175 94.3773 80.8055 94.8754 82.2081 94.8754C83.8313 94.8754 84.8557 94.088 84.8557 92.2884V91.0673C84.3829 91.8867 83.264 92.658 82.0662 92.658C79.9072 92.658 78.3154 90.9869 78.3154 88.6732V88.5607C78.3154 86.2791 79.8914 84.3831 82.1608 84.3831C83.5319 84.3831 84.3829 85.0579 84.8557 85.8774V84.5277H86.1638V92.3688C86.148 94.8111 84.5248 96.0001 82.2238 96.0001C79.7811 96.0001 78.7094 94.8272 78.4888 93.4132ZM84.903 88.5768V88.4643C84.903 86.5843 83.8944 85.4917 82.2869 85.4917C80.6794 85.4917 79.6708 86.729 79.6708 88.4964V88.625C79.6708 90.4567 80.8212 91.5493 82.2081 91.5493C83.7368 91.5493 84.903 90.4567 84.903 88.5768Z" fill="white"/>
<path d="M88.6064 81.8925C88.6064 81.4105 89.0004 81.0088 89.4732 81.0088C89.946 81.0088 90.34 81.4105 90.34 81.8925C90.34 82.3746 89.946 82.7763 89.4732 82.7763C89.0004 82.7763 88.6064 82.3746 88.6064 81.8925ZM88.8428 84.5277H90.1509V92.9311H88.8428V84.5277Z" fill="white"/>
<path d="M92.1523 90.3442H93.4289C93.5234 91.3404 94.0435 91.9671 95.3673 91.9671C96.6123 91.9671 97.1639 91.5332 97.1639 90.6334C97.1639 89.7336 96.5178 89.4605 95.2412 89.2195C93.0979 88.8178 92.373 88.2072 92.373 86.745C92.373 85.1865 93.8701 84.3831 95.1624 84.3831C96.6439 84.3831 97.9204 84.9936 98.141 86.8093H96.8803C96.6911 85.8934 96.1868 85.4917 95.1467 85.4917C94.2011 85.4917 93.5865 85.9738 93.5865 86.6968C93.5865 87.4199 93.9962 87.7573 95.5092 88.0305C97.2112 88.3518 98.409 88.7374 98.409 90.521C98.409 92.0474 97.3846 93.0758 95.3831 93.0758C93.3816 93.0758 92.2311 92.0635 92.1523 90.3442Z" fill="white"/>
<path d="M100.678 90.8261V85.6523H99.4961V84.5276H100.678V82.6155H101.986V84.5276H103.909V85.6523H101.986V90.6976C101.986 91.5171 102.349 91.9188 103.011 91.9188C103.42 91.9188 103.735 91.8545 104.019 91.742V92.8668C103.751 92.9632 103.436 93.0435 102.9 93.0435C101.403 93.0435 100.678 92.1437 100.678 90.8261Z" fill="white"/>
<path d="M105.784 81.8925C105.784 81.4105 106.178 81.0088 106.651 81.0088C107.124 81.0088 107.518 81.4105 107.518 81.8925C107.518 82.3746 107.124 82.7763 106.651 82.7763C106.178 82.7763 105.784 82.3746 105.784 81.8925ZM106.021 84.5277H107.329V92.9311H106.021V84.5277Z" fill="white"/>
<path d="M109.394 88.8178V88.6892C109.394 86.1184 111.19 84.3831 113.397 84.3831C115.114 84.3831 116.722 85.1864 116.974 87.3235H115.682C115.477 85.9898 114.531 85.4917 113.397 85.4917C111.899 85.4917 110.749 86.7129 110.749 88.6892V88.8178C110.749 90.8745 111.852 91.9671 113.444 91.9671C114.61 91.9671 115.666 91.2762 115.808 89.9104H117.021C116.848 91.7261 115.414 93.0758 113.428 93.0758C111.127 93.0758 109.394 91.4208 109.394 88.8178Z" fill="white"/>
<path d="M118.313 90.3442H119.59C119.685 91.3404 120.205 91.9671 121.528 91.9671C122.773 91.9671 123.325 91.5332 123.325 90.6334C123.325 89.7336 122.679 89.4605 121.402 89.2195C119.259 88.8178 118.534 88.2072 118.534 86.745C118.534 85.1865 120.031 84.3831 121.324 84.3831C122.805 84.3831 124.082 84.9936 124.302 86.8093H123.041C122.852 85.8934 122.348 85.4917 121.308 85.4917C120.362 85.4917 119.748 85.9738 119.748 86.6968C119.748 87.4199 120.157 87.7573 121.67 88.0305C123.372 88.3518 124.57 88.7374 124.57 90.521C124.57 92.0474 123.546 93.0758 121.544 93.0758C119.543 93.0758 118.392 92.0635 118.313 90.3442Z" fill="white"/>
<path d="M130.827 81.4426H134.026C136.185 81.4426 137.966 82.4067 137.966 84.8008V84.8651C137.966 87.3074 136.169 88.2554 134.026 88.2554H132.198V92.9311H130.827V81.4426ZM134.12 87.1467C135.728 87.1467 136.595 86.3433 136.595 84.8651V84.8008C136.595 83.178 135.649 82.5674 134.12 82.5674H132.198V87.1467H134.12Z" fill="white"/>
<path d="M139.92 80.5105H141.244V92.9309H139.92V80.5105Z" fill="white"/>
<path d="M143.245 90.6013C143.245 88.6571 145.262 87.9983 147.374 87.9983H148.556V87.3877C148.556 86.0541 148.052 85.4917 146.791 85.4917C145.656 85.4917 145.026 85.9738 144.9 87.0021H143.592C143.765 85.09 145.262 84.3831 146.854 84.3831C148.446 84.3831 149.864 85.0418 149.864 87.3877V92.9311H148.556V91.8707C147.942 92.658 147.201 93.0758 145.987 93.0758C144.459 93.0758 143.245 92.3206 143.245 90.6013ZM148.556 89.9907V88.9463H147.421C145.767 88.9463 144.553 89.3641 144.553 90.6013C144.553 91.469 144.963 92.0153 146.113 92.0153C147.5 92.0153 148.556 91.2922 148.556 89.9907Z" fill="white"/>
<path d="M152.717 90.8261V85.6523H151.535V84.5276H152.717V82.6155H154.025V84.5276H155.947V85.6523H154.025V90.6976C154.025 91.5171 154.387 91.9188 155.049 91.9188C155.459 91.9188 155.774 91.8545 156.058 91.742V92.8668C155.79 92.9632 155.475 93.0435 154.939 93.0435C153.442 93.0435 152.717 92.1437 152.717 90.8261Z" fill="white"/>
<path d="M158.233 85.6523H157.051V84.5276H158.233V83.1618C158.233 81.4586 159.052 80.4624 160.691 80.4624C161.117 80.4624 161.337 80.5106 161.668 80.6231V81.7478C161.432 81.6514 161.101 81.5711 160.739 81.5711C159.888 81.5711 159.541 82.1656 159.541 83.0172V84.5276H161.558V85.6523H159.541V92.931H158.233V85.6523Z" fill="white"/>
<path d="M162.393 88.8017V88.6732C162.393 86.1505 164.111 84.3831 166.443 84.3831C168.776 84.3831 170.494 86.1344 170.494 88.6571V88.7856C170.494 91.3244 168.776 93.0758 166.428 93.0758C164.079 93.0758 162.393 91.2601 162.393 88.8017ZM169.138 88.8017V88.6892C169.138 86.745 168.082 85.4917 166.443 85.4917C164.804 85.4917 163.748 86.745 163.748 88.6732V88.8017C163.748 90.7138 164.773 91.9671 166.443 91.9671C168.114 91.9671 169.138 90.6977 169.138 88.8017Z" fill="white"/>
<path d="M172.527 84.5277H173.835V86.038C174.355 85.09 175.064 84.4313 176.546 84.3831V85.6363C174.891 85.7167 173.835 86.2469 173.835 88.3197V92.9311H172.527V84.5277Z" fill="white"/>
<path d="M178.453 84.5277H179.761V85.8131C180.139 85.0258 181.037 84.3831 182.219 84.3831C183.275 84.3831 184.205 84.833 184.63 85.9577C185.198 84.8651 186.427 84.3831 187.451 84.3831C188.933 84.3831 190.225 85.2829 190.225 87.7252V92.9311H188.917V87.6288C188.917 86.1505 188.302 85.5399 187.168 85.5399C186.096 85.5399 184.993 86.2791 184.993 87.7894V92.9311H183.685V87.6288C183.685 86.1505 183.07 85.5399 181.936 85.5399C180.864 85.5399 179.761 86.2791 179.761 87.7894V92.9311H178.453V84.5277Z" fill="white"/>
<path d="M203.699 60.7846H202.686V60.4312H205.134V60.7846H204.12V63.9768H203.694V60.7846H203.699Z" fill="white"/>
<path d="M205.711 60.4312H206.3L207.377 63.1948L208.417 60.4312H209V63.9768H208.574V60.9935L207.424 63.9768H207.293L206.1 60.9935V63.9768H205.711V60.4312Z" fill="white"/>
</g>
<defs>
<clipPath id="clip0_34_835">
<rect width="209" height="96" fill="white"/>
</clipPath>
</defs>
</svg>
